<svg width="99" height="99" viewBox="0 0 99 99" fill="none" xmlns="http://www.w3.org/2000/svg">
<g filter="url(#filter0_d_2_612)">
<circle cx="49.5" cy="46.5" r="19.5" fill="#735BF2"/>
</g>
<path d="M47.9631 44.8325C47.7551 44.4511 47.4691 44.1608 47.1051 43.9615C46.7411 43.7621 46.3164 43.6625 45.8311 43.6625C45.2937 43.6625 44.8171 43.7838 44.4011 44.0265C43.9851 44.2691 43.6601 44.6158 43.4261 45.0665C43.1921 45.5171 43.0751 46.0371 43.0751 46.6265C43.0751 47.2331 43.1921 47.7618 43.4261 48.2125C43.6687 48.6631 44.0024 49.0098 44.4271 49.2525C44.8517 49.4951 45.3457 49.6165 45.9091 49.6165C46.6024 49.6165 47.1701 49.4345 47.6121 49.0705C48.0541 48.6978 48.3444 48.1821 48.4831 47.5235H45.3631V46.1325H50.2771V47.7185C50.1557 48.3511 49.8957 48.9361 49.4971 49.4735C49.0984 50.0108 48.5827 50.4441 47.9501 50.7735C47.3261 51.0941 46.6241 51.2545 45.8441 51.2545C44.9687 51.2545 44.1757 51.0595 43.4651 50.6695C42.7631 50.2708 42.2084 49.7205 41.8011 49.0185C41.4024 48.3165 41.2031 47.5191 41.2031 46.6265C41.2031 45.7338 41.4024 44.9365 41.8011 44.2345C42.2084 43.5238 42.7631 42.9735 43.4651 42.5835C44.1757 42.1848 44.9644 41.9855 45.8311 41.9855C46.8537 41.9855 47.7421 42.2368 48.4961 42.7395C49.2501 43.2335 49.7701 43.9311 50.0561 44.8325H47.9631ZM54.8216 51.2935C54.1282 51.2935 53.5042 51.1418 52.9496 50.8385C52.3949 50.5265 51.9572 50.0888 51.6366 49.5255C51.3246 48.9621 51.1686 48.3121 51.1686 47.5755C51.1686 46.8388 51.3289 46.1888 51.6496 45.6255C51.9789 45.0621 52.4252 44.6288 52.9886 44.3255C53.5519 44.0135 54.1802 43.8575 54.8736 43.8575C55.5669 43.8575 56.1952 44.0135 56.7586 44.3255C57.3219 44.6288 57.7639 45.0621 58.0846 45.6255C58.4139 46.1888 58.5786 46.8388 58.5786 47.5755C58.5786 48.3121 58.4096 48.9621 58.0716 49.5255C57.7422 50.0888 57.2916 50.5265 56.7196 50.8385C56.1562 51.1418 55.5236 51.2935 54.8216 51.2935ZM54.8216 49.7075C55.1509 49.7075 55.4586 49.6295 55.7446 49.4735C56.0392 49.3088 56.2732 49.0661 56.4466 48.7455C56.6199 48.4248 56.7066 48.0348 56.7066 47.5755C56.7066 46.8908 56.5246 46.3665 56.1606 46.0025C55.8052 45.6298 55.3676 45.4435 54.8476 45.4435C54.3276 45.4435 53.8899 45.6298 53.5346 46.0025C53.1879 46.3665 53.0146 46.8908 53.0146 47.5755C53.0146 48.2601 53.1836 48.7888 53.5216 49.1615C53.8682 49.5255 54.3016 49.7075 54.8216 49.7075Z" fill="white"/>
<defs>
<filter id="filter0_d_2_612" x="0" y="0" width="99" height="99" filterUnits="userSpaceOnUse" color-interpolation-filters="sRGB">
<feFlood flood-opacity="0" result="BackgroundImageFix"/>
<feColorMatrix in="SourceAlpha" type="matrix" values="0 0 0 0 0 0 0 0 0 0 0 0 0 0 0 0 0 0 127 0" result="hardAlpha"/>
<feOffset dy="3"/>
<feGaussianBlur stdDeviation="15"/>
<feColorMatrix type="matrix" values="0 0 0 0 0 0 0 0 0 0 0 0 0 0 0 0 0 0 0.0784314 0"/>
<feBlend mode="normal" in2="BackgroundImageFix" result="effect1_dropShadow_2_612"/>
<feBlend mode="normal" in="SourceGraphic" in2="effect1_dropShadow_2_612" result="shape"/>
</filter>
</defs>
</svg>
