<svg width="32" height="37" viewBox="0 0 32 37" fill="none" xmlns="http://www.w3.org/2000/svg">
<circle cx="16" cy="16" r="16" fill="#735BF2"/>
<path d="M14.0807 13.656C13.8727 13.2747 13.5867 12.9843 13.2227 12.785C12.8587 12.5857 12.4341 12.486 11.9487 12.486C11.4114 12.486 10.9347 12.6073 10.5187 12.85C10.1027 13.0927 9.77772 13.4393 9.54372 13.89C9.30972 14.3407 9.19272 14.8607 9.19272 15.45C9.19272 16.0567 9.30972 16.5853 9.54372 17.036C9.78639 17.4867 10.1201 17.8333 10.5447 18.076C10.9694 18.3187 11.4634 18.44 12.0267 18.44C12.7201 18.44 13.2877 18.258 13.7297 17.894C14.1717 17.5213 14.4621 17.0057 14.6007 16.347H11.4807V14.956H16.3947V16.542C16.2734 17.1747 16.0134 17.7597 15.6147 18.297C15.2161 18.8343 14.7004 19.2677 14.0677 19.597C13.4437 19.9177 12.7417 20.078 11.9617 20.078C11.0864 20.078 10.2934 19.883 9.58272 19.493C8.88072 19.0943 8.32606 18.544 7.91872 17.842C7.52006 17.14 7.32072 16.3427 7.32072 15.45C7.32072 14.5573 7.52006 13.76 7.91872 13.058C8.32606 12.3473 8.88072 11.797 9.58272 11.407C10.2934 11.0083 11.0821 10.809 11.9487 10.809C12.9714 10.809 13.8597 11.0603 14.6137 11.563C15.3677 12.057 15.8877 12.7547 16.1737 13.656H14.0807ZM20.9392 20.117C20.2459 20.117 19.6219 19.9653 19.0672 19.662C18.5126 19.35 18.0749 18.9123 17.7542 18.349C17.4422 17.7857 17.2862 17.1357 17.2862 16.399C17.2862 15.6623 17.4466 15.0123 17.7672 14.449C18.0966 13.8857 18.5429 13.4523 19.1062 13.149C19.6696 12.837 20.2979 12.681 20.9912 12.681C21.6846 12.681 22.3129 12.837 22.8762 13.149C23.4396 13.4523 23.8816 13.8857 24.2022 14.449C24.5316 15.0123 24.6962 15.6623 24.6962 16.399C24.6962 17.1357 24.5272 17.7857 24.1892 18.349C23.8599 18.9123 23.4092 19.35 22.8372 19.662C22.2739 19.9653 21.6412 20.117 20.9392 20.117ZM20.9392 18.531C21.2686 18.531 21.5762 18.453 21.8622 18.297C22.1569 18.1323 22.3909 17.8897 22.5642 17.569C22.7376 17.2483 22.8242 16.8583 22.8242 16.399C22.8242 15.7143 22.6422 15.19 22.2782 14.826C21.9229 14.4533 21.4852 14.267 20.9652 14.267C20.4452 14.267 20.0076 14.4533 19.6522 14.826C19.3056 15.19 19.1322 15.7143 19.1322 16.399C19.1322 17.0837 19.3012 17.6123 19.6392 17.985C19.9859 18.349 20.4192 18.531 20.9392 18.531Z" fill="white"/>
</svg>
