<svg width="48" height="48" viewBox="0 0 48 48" fill="none" xmlns="http://www.w3.org/2000/svg">
<rect width="48" height="48" rx="10" fill="#BAB0F9"/>
<path fill-rule="evenodd" clip-rule="evenodd" d="M18.8 13.6C18.4552 13.6 18.1245 13.737 17.8807 13.9808C17.6369 14.2246 17.5 14.5552 17.5 14.9V16.2H16.2C15.5104 16.2 14.8491 16.4739 14.3615 16.9615C13.8739 17.4491 13.6 18.1104 13.6 18.8V31.8C13.6 32.4896 13.8739 33.1509 14.3615 33.6385C14.8491 34.1261 15.5104 34.4 16.2 34.4H31.8C32.4895 34.4 33.1509 34.1261 33.6385 33.6385C34.126 33.1509 34.4 32.4896 34.4 31.8V18.8C34.4 18.1104 34.126 17.4491 33.6385 16.9615C33.1509 16.4739 32.4895 16.2 31.8 16.2H30.5V14.9C30.5 14.5552 30.363 14.2246 30.1192 13.9808C29.8754 13.737 29.5448 13.6 29.2 13.6C28.8552 13.6 28.5245 13.737 28.2807 13.9808C28.0369 14.2246 27.9 14.5552 27.9 14.9V16.2H20.1V14.9C20.1 14.5552 19.963 14.2246 19.7192 13.9808C19.4754 13.737 19.1448 13.6 18.8 13.6ZM18.8 20.1C18.4552 20.1 18.1245 20.237 17.8807 20.4808C17.6369 20.7246 17.5 21.0552 17.5 21.4C17.5 21.7448 17.6369 22.0754 17.8807 22.3192C18.1245 22.563 18.4552 22.7 18.8 22.7H29.2C29.5448 22.7 29.8754 22.563 30.1192 22.3192C30.363 22.0754 30.5 21.7448 30.5 21.4C30.5 21.0552 30.363 20.7246 30.1192 20.4808C29.8754 20.237 29.5448 20.1 29.2 20.1H18.8Z" fill="white"/>
</svg>
