<svg version="1.1" id="Calque_1" xmlns="http://www.w3.org/2000/svg" xmlns:xlink="http://www.w3.org/1999/xlink" x="0px" y="0px"
	 viewBox="0 0 347.2 56.2" style="enable-background:new 0 0 347.2 56.2;" xml:space="preserve">
<style type="text/css">
	.st0{fill:#003869;}
	.st1{fill:none;}
</style>
<path class="st0" d="M73.1,17H29.3c-7.6,0-11.9,5.8-11.9,11.4c0,5.6,4.3,11.4,11.9,11.4h44.2v16.6H26.1c-13.8,0-25.9-10.7-25.9-28
	s12.2-28,25.9-28h47V17z M101.1,0.5H80.8l0,56h20.3V38.3h19.1c14.2,0,15,18.2,15,18.2h0H154c0-13.8-6.2-24.6-13.5-29.1
	c6-3.8,13.1-12.7,13.1-26.9h-18.9c0,0-2.3,18-14.5,18h-19.1V0.5z M180.9,5.1c-5.3,0-9.3,4.1-9.3,9.4c0,5.4,3.9,9.6,9.4,9.6
	c4.6,0,7.1-2.9,7.1-2.9l-1.4-1.8c0,0-2.2,2.4-5.7,2.4c-4.1,0-6.8-3.3-6.8-7.3c0-3.9,2.7-7,6.8-7c3.2,0,5.3,2,5.3,2l1.3-1.9
	C187.6,7.5,185.3,5.1,180.9,5.1 M191.1,23.7h2.5v-6.2c0-0.6,0.1-1.2,0.2-1.7c0.5-1.9,2.2-3.2,4.2-3.2c2.1,0,2.5,1.5,2.5,3.3v7.8h2.5
	v-8.4c0-3.4-1.4-5-4.5-5c-2.6,0-4.3,1.7-4.9,2.9h-0.1c0,0,0.1-0.5,0.1-1.1V5.4h-2.5V23.7z M213.6,15.5c-2.2,0-7.9,0.2-7.9,4.5
	c0,2.6,2.2,4,4.5,4c3.1,0,4.2-2.6,4.2-2.6h0.1c0,0-0.1,0.4-0.1,1v1.2h2.3v-8.3c0-3.3-1.9-5.1-5.2-5.1c-3,0-4.9,1.6-4.9,1.6l1,1.8
	c0,0,1.6-1.3,3.7-1.3c1.7,0,2.9,0.7,2.9,2.9v0.2H213.6 M210.7,22c-1.6,0-2.5-1-2.5-2.1c0-2.4,3.4-2.5,5.3-2.5h0.6v0.4
	C214.2,19.8,212.8,22,210.7,22 M220.5,23.7h2.5v-5.4c0-0.8,0.1-1.6,0.3-2.4c0.6-1.9,2.1-3.1,3.7-3.1c0.4,0,0.7,0.1,0.7,0.1v-2.5
	c0,0-0.3-0.1-0.6-0.1c-2,0-3.6,1.5-4.2,3.4h-0.1c0,0,0.1-0.4,0.1-1v-2.3h-2.4V23.7z M230.1,20.2c0,3.3,2.1,3.7,3.5,3.7
	c0.4,0,0.8-0.1,0.8-0.1v-2.2c0,0-0.2,0-0.4,0c-0.8,0-1.4-0.3-1.4-1.9V5.4h-2.5V20.2z M242.8,10.3c-3.7,0-6.6,2.7-6.6,6.9
	c0,3.9,2.8,6.9,7,6.9c3.1,0,5.1-1.9,5.1-1.9l-1-1.8c0,0-1.6,1.5-3.9,1.5c-2.3,0-4.4-1.5-4.5-4.3h9.6c0,0,0.1-0.8,0.1-1.1
	C248.5,13,246.5,10.3,242.8,10.3 M238.9,15.6c0.4-2.2,1.9-3.4,3.8-3.4c1.7,0,3.1,1.1,3.2,3.4H238.9z M250.5,22.1c0,0,1.8,1.9,5,1.9
	c2.9,0,4.8-1.6,4.8-3.8c0-4.3-6.8-3.8-6.8-6.2c0-1.1,1.1-1.6,2.2-1.6c2.1,0,3.2,1.2,3.2,1.2l1-1.9c0,0-1.4-1.5-4.2-1.5
	c-2.6,0-4.8,1.4-4.8,3.7c0,4.3,6.8,3.8,6.8,6.2c0,1.1-1.1,1.6-2.2,1.6c-2.3,0-3.8-1.5-3.8-1.5L250.5,22.1z M270.4,23.7h2.6v-8.4h2.7
	l4.9,8.4h2.9l-5.7-9.6v-0.1l5.3-8.7h-2.8l-4.6,7.7h-2.7V5.4h-2.6V23.7z M286,8h2.5V5.4H286V8z M286,23.7h2.5V10.6H286V23.7z
	 M298.2,10.3c-3.7,0-6.6,2.7-6.6,6.9c0,3.9,2.8,6.9,7,6.9c3.1,0,5.1-1.9,5.1-1.9l-1-1.8c0,0-1.6,1.5-3.9,1.5c-2.3,0-4.4-1.5-4.5-4.3
	h9.6c0,0,0.1-0.8,0.1-1.1C303.9,13,301.9,10.3,298.2,10.3 M294.3,15.6c0.4-2.2,1.9-3.4,3.8-3.4c1.7,0,3.1,1.1,3.2,3.4H294.3z
	 M316.4,23.7h2.5V12.6h3.1v-2h-3.1v-0.4c0-2.4,1.8-2.8,2.8-2.8c0.4,0,0.7,0.1,0.7,0.1V5.3c0,0-0.4-0.1-1-0.1c-1.7,0-4.9,0.5-4.9,4.9
	v0.4h-6.2v-0.4c0-2.4,1.8-2.8,2.8-2.8c0.4,0,0.6,0.1,0.6,0.1V5.3c0,0-0.4-0.1-1-0.1c-1.7,0-4.9,0.5-4.9,4.9v0.4H306v2h1.6v11.1h2.5
	V12.6h6.2V23.7z M330.1,10.3c-3.7,0-6.6,2.7-6.6,6.9c0,3.9,2.8,6.9,7,6.9c3.1,0,5.1-1.9,5.1-1.9l-1-1.8c0,0-1.6,1.5-3.9,1.5
	c-2.3,0-4.4-1.5-4.5-4.3h9.6c0,0,0.1-0.8,0.1-1.1C335.8,13,333.8,10.3,330.1,10.3 M326.2,15.6c0.4-2.2,1.9-3.4,3.8-3.4
	c1.7,0,3.1,1.1,3.2,3.4H326.2z M338.8,23.7h2.5v-5.4c0-0.8,0.1-1.6,0.3-2.4c0.6-1.9,2.1-3.1,3.7-3.1c0.4,0,0.7,0.1,0.7,0.1v-2.5
	c0,0-0.3-0.1-0.6-0.1c-2,0-3.6,1.5-4.2,3.4h-0.1c0,0,0.1-0.4,0.1-1v-2.3h-2.4V23.7z M181,32.6c-5.4,0-9.4,4.2-9.4,9.5
	c0,5.6,4.1,9.5,9,9.5c3.6,0,5.6-2.2,5.6-2.2h0.1c0,0,0,0.4,0,0.8v1.1h2.3V42h-5.3v2.2h3v2.7c0,0-2,2.3-5.2,2.3
	c-3.8,0-6.8-2.9-6.8-7.2c0-3.9,2.6-7.1,6.9-7.1c3.1,0,5.2,1.8,5.2,1.8l1.3-1.9C187.6,34.8,185.4,32.6,181,32.6 M192.1,51.2h2.5v-5.4
	c0-0.8,0.1-1.6,0.3-2.4c0.6-1.9,2.1-3.1,3.7-3.1c0.4,0,0.7,0.1,0.7,0.1V38c0,0-0.3-0.1-0.6-0.1c-2,0-3.6,1.5-4.2,3.4h-0.1
	c0,0,0.1-0.4,0.1-1v-2.3h-2.4V51.2z M207.9,37.8c-3.9,0-7.1,2.9-7.1,6.9c0,4,3.2,6.9,7.1,6.9c3.9,0,7.1-2.9,7.1-6.9
	C215,40.6,211.8,37.8,207.9,37.8 M207.9,49.4c-2.5,0-4.5-2-4.5-4.7c0-2.7,2.1-4.7,4.5-4.7c2.5,0,4.5,1.9,4.5,4.7
	C212.4,47.4,210.4,49.4,207.9,49.4 M217.8,46.5c0,3.5,1.5,5,4.5,5c2.6,0,4.3-1.7,4.8-3h0.1c0,0-0.1,0.4-0.1,1v1.7h2.4V38.1H227v6.2
	c0,2.6-1.6,5-4.3,5c-2.1,0-2.5-1.5-2.5-3.3v-7.8h-2.5V46.5z M233.5,56.4h2.5v-5.9c0-0.7-0.1-1.1-0.1-1.1h0.1c0,0,1.1,2.2,4,2.2
	c3.4,0,6-2.7,6-6.9c0-4.1-2.2-6.9-5.8-6.9c-3.3,0-4.4,2.4-4.4,2.4h-0.1c0,0,0.1-0.4,0.1-1v-1.1h-2.3V56.4z M239.7,49.4
	c-2.4,0-3.7-2.3-3.7-4.7c0-3.4,1.8-4.7,3.8-4.7c2.2,0,3.7,1.8,3.7,4.7C243.5,47.7,241.7,49.4,239.7,49.4"/>
<rect x="-54.9" y="-55.5" class="st1"/>
</svg>
