<svg width="21" height="20" viewBox="0 0 21 20" fill="none" xmlns="http://www.w3.org/2000/svg">
<path d="M19.1937 8.74999V12.9167C19.1937 15.8333 17.5227 17.0833 15.0162 17.0833H6.66116C4.15465 17.0833 2.48364 15.8333 2.48364 12.9167V7.08332C2.48364 4.16666 4.15465 2.91666 6.66116 2.91666H12.5097" stroke="#84818A" stroke-width="1.5" stroke-miterlimit="10" stroke-linecap="round" stroke-linejoin="round"/>
<path d="M6.66113 7.5L9.27626 9.58333C10.1368 10.2667 11.5488 10.2667 12.4094 9.58333L13.3953 8.8" stroke="#84818A" stroke-width="1.5" stroke-miterlimit="10" stroke-linecap="round" stroke-linejoin="round"/>
<path d="M17.1049 6.66667C18.2585 6.66667 19.1936 5.73393 19.1936 4.58333C19.1936 3.43274 18.2585 2.5 17.1049 2.5C15.9513 2.5 15.0161 3.43274 15.0161 4.58333C15.0161 5.73393 15.9513 6.66667 17.1049 6.66667Z" stroke="#84818A" stroke-width="1.5" stroke-miterlimit="10" stroke-linecap="round" stroke-linejoin="round"/>
</svg>
