<svg width="21" height="20" viewBox="0 0 21 20" fill="none" xmlns="http://www.w3.org/2000/svg">
<path d="M18.7047 9.58332V12.9167C18.7047 15.8333 17.0337 17.0833 14.5272 17.0833H6.17214C3.66564 17.0833 1.99463 15.8333 1.99463 12.9167V7.08332C1.99463 4.16666 3.66564 2.91666 6.17214 2.91666H10.3497" stroke="#84818A" stroke-width="1.5" stroke-miterlimit="10" stroke-linecap="round" stroke-linejoin="round"/>
<path d="M6.17212 7.5L8.78725 9.58333C9.64782 10.2667 11.0598 10.2667 11.9204 9.58333" stroke="#84818A" stroke-width="1.5" stroke-miterlimit="10" stroke-linecap="round" stroke-linejoin="round"/>
<path d="M16.5992 2.35001L16.8332 2.82501C16.9502 3.05834 17.2426 3.27501 17.5016 3.32501L17.8191 3.37501C18.7715 3.53334 18.9971 4.23334 18.312 4.92501L18.0196 5.21667C17.8274 5.41667 17.7188 5.80001 17.7773 6.06667L17.8191 6.24168C18.0781 7.39168 17.4682 7.83333 16.4656 7.23333L16.2483 7.10834C15.9893 6.95834 15.5716 6.95834 15.3126 7.10834L15.0953 7.23333C14.0844 7.84167 13.4745 7.39168 13.7418 6.24168L13.7836 6.06667C13.8421 5.80001 13.7335 5.41667 13.5413 5.21667L13.2489 4.92501C12.5638 4.23334 12.7893 3.53334 13.7418 3.37501L14.0593 3.32501C14.31 3.28334 14.6107 3.05834 14.7277 2.82501L14.9616 2.35001C15.4128 1.44168 16.1481 1.44168 16.5992 2.35001Z" stroke="#84818A" stroke-width="1.5" stroke-linecap="round" stroke-linejoin="round"/>
</svg>
